<?xml version="1.0" standalone="no"?>
<!DOCTYPE svg PUBLIC "-//W3C//DTD SVG 1.1//EN" "http://www.w3.org/Graphics/SVG/1.1/DTD/svg11.dtd">
<svg xmlns="http://www.w3.org/2000/svg">
<metadata>Generated by Fontastic.me</metadata>
<defs>
<font id="clientapp" horiz-adv-x="512">
<font-face font-family="clientapp" units-per-em="512" ascent="480" descent="-32"/>
<missing-glyph horiz-adv-x="512" />

<glyph glyph-name="ismoke" unicode="&#97;" d="M12 122l366 0 0-73-366 0z m451 0l37 0 0-73-37 0z m-61 0l37 0 0-73-37 0z m21 202c15 15 24 35 24 58 0 45-36 81-81 81l0-36c25 0 45-20 45-45 0-25-20-45-45-45l0-37c54 0 97-45 97-99l0-55 37 0 0 55c0 54-31 101-77 123z m-69-61l-37 0c-25 0-45 24-45 49 0 25 20 43 45 43l0 36c-45 0-82-36-82-81 0-45 37-82 82-82l37 0c26 0 48-18 48-50l0-32 37 0 0 40c0 44-39 77-85 77z"/>
<glyph glyph-name="nosmoke" unicode="&#98;" d="M12 415l170-171-170 0 0-74 244 0 170-170 31 31-414 414z m451-171l37 0 0-74-37 0z m-61 0l37 0 0-74-37 0z m21 198c15 15 24 35 24 58l-36 0c0-25-20-45-45-45l0-37c54 0 97-44 97-99l0-51 37 0 0 51c0 54-32 101-77 123z m-106-93l37 0c26 0 48-18 48-51l0-30 37 0 0 39c0 44-39 77-85 77l-37 0c-25 0-45 24-45 49 0 25 20 43 45 43l0 36c-45 0-82-36-82-82 0-45 37-81 82-81z m61-177l0 72-72 0z"/>
<glyph glyph-name="k5000" unicode="&#99;" d="M0 512l0-256 255 0 0-88c-7 4-14 6-22 6-12 0-22-4-31-12-8-9-12-19-12-31 0-10 3-19 8-26l66-88c4-5 9-9 15-12 6-3 13-5 20-5l122 0c8 0 14 2 20 7 6 4 10 10 12 18l15 62c4 13 5 26 5 39l0 37c0 10-3 20-11 27-7 8-16 12-27 12-3 0-6-1-10-2-8 10-18 15-31 15-6 0-11-1-17-3-8 8-18 11-29 11-1 0-3 0-6 0l0 33 170 0 0 256z m21-21l22 0 0-43-22 0z m86-43l64 0 0-21-43 0 0-22 43 0 0-85-64 0 0 21 42 0 0 43-42 0z m85 0l64 0 0-128-64 0z m85 0l64 0 0-128-64 0z m86 0l64 0 0-128-64 0z m-342-21l22 0 0-86-22 0z m192 0l0-86 22 0 0 86z m86 0l0-86 21 0 0 86z m85 0l0-86 21 0 0 86z m-363-107l22 0 0-43-22 0z m278-37c6 0 11-2 15-6 4-5 7-10 7-16l0-97 5 0 0 16c0 6 2 11 6 15 5 5 10 7 16 7 6 0 11-3 15-7 4-4 7-10 7-16l0-15 5 0 0 10c0 6 2 10 6 14 3 4 8 6 13 6 6 0 10-2 14-6 3-4 5-9 5-14l0-10 6 0c0 4 1 8 4 11 4 3 7 5 12 5 5 0 8-2 12-5 3-4 4-8 4-12l0-37c0-11-1-22-4-33l-15-63c-1-2-2-4-4-6-2-1-4-2-7-2l-122 0c-8 0-13 3-18 8l-65 88c-3 4-5 8-5 13 0 6 3 11 7 15 4 4 9 7 15 7 7 0 14-3 18-10l26-34 0 153c0 6 2 11 6 15 5 4 10 6 16 6z m16-152l0-66 6 0 0 66z m44 0l0-66 5 0 0 66z m43 0l0-66 6 0 0 66z"/>
<glyph glyph-name="k1000" unicode="&#100;" d="M0 512l0-256 255 0 0-88c-7 4-14 6-22 6-12 0-23-4-31-12-8-9-13-19-13-31 0-10 3-19 9-26l65-88c5-5 10-9 16-12 6-3 13-5 19-5l123 0c7 0 14 2 20 7 6 4 10 10 11 18l16 62c3 13 5 26 5 39l0 37c0 10-4 20-11 27-8 8-17 12-27 12-4 0-7-1-10-2-8 10-18 15-31 15-6 0-12-1-17-3-8 8-18 11-30 11-1 0-3 0-5 0l0 33 170 0 0 256z m21-21l22 0 0-43-22 0z m86-43l42 0 0-107 22 0 0-21-64 0 0 21 21 0 0 86-21 0z m85 0l64 0 0-128-64 0z m85 0l64 0 0-128-64 0z m86 0l64 0 0-128-64 0z m-342-21l22 0 0-86-22 0z m192 0l0-86 22 0 0 86z m86 0l0-86 21 0 0 86z m85 0l0-86 21 0 0 86z m-363-107l22 0 0-43-22 0z m277-37c7 0 12-2 16-6 4-5 6-10 6-16l0-97 6 0 0 16c0 6 2 11 6 15 4 5 9 7 15 7 7 0 12-3 16-7 4-4 7-10 6-16l0-15 6 0 0 10c0 6 2 10 5 14 4 4 9 6 14 6 5 0 10-2 13-6 4-4 6-9 6-14l0-10 5 0c0 4 2 8 5 11 3 3 7 5 12 5 4 0 8-2 11-5 3-4 5-8 5-12l0-37c0-11-1-22-4-33l-16-63c0-2-2-4-4-6-1-1-4-2-6-2l-123 0c-7 0-13 3-17 8l-65 88c-3 4-5 8-5 13 0 6 2 11 6 15 5 4 10 7 16 7 7 0 13-3 18-10l26-34 0 153c0 6 2 11 6 15 4 4 9 6 15 6z m17-152l0-66 5 0 0 66z m43 0l0-66 6 0 0 66z m44 0l0-66 5 0 0 66z"/>
<glyph glyph-name="ticketw" unicode="&#101;" d="M416 512l0-43-43 0 0 43-96 0 0-43-42 0 0 43-96 0 0-43-43 0 0 43-96 0 0-512 96 0 0 43 43 0 0-43 96 0 0 43 42 0 0-43 96 0 0 43 43 0 0-43 96 0 0 512z m64-480l-32 0 0 43-107 0 0-43-32 0 0 43-106 0 0-43-32 0 0 43-107 0 0-43-32 0 0 448 32 0 0-43 107 0 0 43 32 0 0-43 106 0 0 43 32 0 0-43 107 0 0 43 32 0z m-395 320l342 0 0-32-342 0z m0-64l342 0 0-32-342 0z m0-64l192 0 0-32-192 0z"/>
<glyph glyph-name="ticketb" unicode="&#102;" d="M0 512l0-512 85 0 0 43 43 0 0-43 107 0 0 43 42 0 0-43 107 0 0 43 43 0 0-43 85 0 0 512-85 0 0-43-43 0 0 43-107 0 0-43-42 0 0 43-107 0 0-43-43 0 0 43z m85-149l342 0 0-43-342 0z m0-86l342 0 0-42-342 0z m0-85l235 0 0-43-235 0z"/>
<glyph glyph-name="kreslo" unicode="&#103;" d="M85 512l0-427 64 0 0-21-85 0 0 171-64 0 0-214 43 0 0-21 426 0 0 21 43 0 0 214-64 0 0-171-85 0 0 21 64 0 0 427z m-64-43l0-192 43 0 0 192z m427 0l0-192 43 0 0 192z m-127-42l42 0-43-278-43 0z m-172 0l43 0 43-278-43 0z m43-320l128 0 0-43-128 0z"/>
<glyph glyph-name="deti" unicode="&#104;" d="M142 512c-34 0-61-27-61-61 0-34 27-77 61-77 34 0 61 43 61 77 0 34-27 61-61 61z m238-3c-21 0-41-12-51-31-24 18-52 12-72 0 0-21 10-34 25-44 11 19 25 33 43 36-2-6-3-13-3-19 0-33 26-74 58-74 32 0 58 42 58 74 0 6-1 13-3 19 17-4 30-18 41-36 14 10 25 23 25 44-20 12-47 17-71 1-10 18-29 30-50 30z m-308-148c-8 1-17-5-22-14l-46-79c-7-12-5-26 5-31l2-1c9-6 22 0 29 11l46 79c7 12 5 27-5 32l-2 1c-2 1-5 2-7 2z m141 0c-3 0-6-1-8-2l-2-1c-10-5-12-20-5-32l46-79c5-9 14-14 22-14 8 0 17 5 22 14l46 79c7 12 5 27-5 32l-2 1c-2 1-5 2-7 2-8 1-17-5-22-14l-32-54-32 54c-5 9-14 15-22 14z m227 0c-2 0-5-1-7-2l-2-1c-10-5-12-20-5-32l46-79c7-12 20-17 29-11l2 1c10 5 12 19 5 31l-46 79c-5 9-14 15-22 14z m-341 0l0-126-31 0 0-203c0-17 13-32 30-32 17 0 30 15 30 31l0 103c0 9 6 16 14 16 8 0 14-7 14-16l0-103c0-16 14-31 30-31 17 0 31 15 31 32l0 203-32 0 0 126-19 0 0-126-48 0 0 126z m230-89l-61-181 41-5 0-54c0-17 10-32 27-32 17 0 28 15 28 32l0 54 32 0 0-54c0-17 11-32 28-32 17 0 27 15 27 32l0 54 41 5-62 181z"/>
<glyph glyph-name="bagage" unicode="&#105;" d="M171 512c-23 0-43-20-43-43l0-42-43 0 0-320 128 0 0 106 171 0 0 214-43 0 0 42c0 23-20 43-42 43z m14-32l99 0c15 0 25-9 25-23l0-30-149 0 0 30c0 14 11 23 25 23z m-142-53c-24 0-43-19-43-43l0-235c0-23 19-42 43-42l21 0 0 320z m362 0l0-214 64 0 0 171c0 24-19 43-42 43z m-170-235l0-85 128 0 0 85z m149 0l0-85 128 0 0 85z m-149-107l0-85 128 0 0 85z m149 0l0-85 128 0 0 85z"/>
<glyph glyph-name="bsmall" unicode="&#106;" d="M205 154l0 25-179 0 0-102c0-29 23-51 51-51l359 0c28 0 51 22 51 51l0 102-179 0 0-25z m256 230l-103 0 0 51-51 51-103 0-51-51 0-51-102 0c-28 0-51-23-51-51l0-77c0-28 23-51 51-51l154 0 0 51 102 0 0-51 154 0c28 0 51 23 51 51l0 77c0 28-23 51-51 51z m-154 0l-102 0 0 51 102 0z"/>
<glyph glyph-name="bheavy" unicode="&#107;" d="M410 512l-308 0c-28 0-51-23-51-51l0-410c0-28 23-51 51-51l308 0c28 0 51 23 51 51l0 410c0 28-23 51-51 51z m0-461l-308 0 0 231 308 0z m0 282l-308 0 0 128 308 0z m-256 102l51 0 0-76-51 0z m0-179l51 0 0-128-51 0z"/>
<glyph glyph-name="blong" unicode="&#108;" d="M0 512c0 0 21-43 64-43l405 0-21 43-107 0 0-21-85 0 0 21z m43-64c0 0 21-43 64-43l405 0-21 43-107 0 0-21-85 0 0 21z m128-64l0-43-43 0c-21 0-27-23-27-23l-58-126c-12 0-23-5-31-13-1-2-3-4-5-6-1-2-3-5-4-7-1-3-2-5-2-8-1-3-1-6-1-9l0-64c0-1 0-3 0-4l0 0 0-38 21 0 0-43 107 0 0 43 256 0 0-43 107 0 0 43 21 0 0 38 0 0c0 1 0 3 0 4l0 64c0 12-5 23-12 30-8 8-19 13-31 13l-58 126c0 0-6 23-27 23l-43 0 0 43-170 0z m0-86l170 0c22 0 19 0 64-107l-298 0c39 107 42 107 64 107z m-96-149c17 0 32-15 32-32 0-18-15-32-32-32-18 0-32 14-32 32 0 17 14 32 32 32z m362 0c18 0 32-15 32-32 0-18-14-32-32-32-17 0-32 14-32 32 0 17 15 32 32 32z"/>
<glyph glyph-name="animals" unicode="&#109;" d="M179 499c-35 0-64-29-64-64 0-36 29-64 64-64 36 0 64 28 64 64 0 35-28 64-64 64z m154 0c-36 0-64-29-64-64 0-36 28-64 64-64 35 0 64 28 64 64 0 35-29 64-64 64z m-269-103c-35 0-64-28-64-64 0-35 29-64 64-64 35 0 64 29 64 64 0 36-29 64-64 64z m384 0c-35 0-64-28-64-64 0-35 29-64 64-64 35 0 64 29 64 64 0 36-29 64-64 64z m-192-89c-7 0-14 0-20 0-3 0-6 0-9-3-18-6-32-20-45-34-22-26-40-48-63-74-33-34-75-71-67-123 7-26 26-52 60-59 18-4 78 11 141 11l5 0c63 0 123-15 142-11 33 7 52 33 60 59 7 53-34 89-67 123-23 26-41 49-64 75-12 14-27 27-45 33-2 0-5 3-8 3-7 0-13 0-20 0z"/>
<glyph glyph-name="konus" unicode="&#110;" d="M256 205c64 0 117 23 120 52-9 28-19 58-30 87-7-21-46-35-90-35-44 0-83 14-90 35-11-29-21-59-30-87 3-29 56-52 120-52z m0 186c30 0 58 10 66 25-11 32-21 60-27 78-4 12-22 18-39 18-17 0-35-6-39-18-6-18-16-46-27-78 8-15 36-25 66-25z m234-227l-100 42 12-33c-1-36-67-64-146-64-79 0-145 28-146 64l12 33-100-42c-28-12-29-33-3-48l189-105c26-15 70-15 96 0l189 105c26 15 25 36-3 48z"/>
<glyph glyph-name="svetofor" unicode="&#111;" d="M484 313l-86 0 0 32c49 13 86 57 86 110l-86 0 0 29c0 15-13 28-28 28l-228 0c-15 0-28-13-28-28l0-29-86 0c0-53 37-97 86-110l0-32-86 0c0-53 37-97 86-110l0-32-86 0c0-53 37-97 86-110l0-32c0-16 13-29 28-29l228 0c15 0 28 13 28 29l0 32c49 13 86 57 86 110l-86 0 0 32c49 13 86 57 86 110z m-228-256c-32 0-57 26-57 57 0 31 25 57 57 57 31 0 57-26 57-57 0-31-26-57-57-57z m0 142c-32 0-57 26-57 57 0 31 25 57 57 57 31 0 57-26 57-57 0-31-26-57-57-57z m0 142c-32 0-57 26-57 57 0 32 25 57 57 57 31 0 57-25 57-57 0-31-26-57-57-57z"/>
<glyph glyph-name="climat" unicode="&#112;" d="M512 282l-106 0 82 83-36 36-119-119-51 0 0 51 119 119-36 36-83-83 0 107-52 0 0-107-83 83-36-36 119-119 0-51-51 0-119 119-36-36 83-83-107 0 0-52 107 0-83-83 36-36 119 119 51 0 0-51-119-119 36-36 83 83 0-107 52 0 0 107 83-83 36 36-119 119 0 51 51 0 119-119 36 36-82 83 106 0z"/>
<glyph glyph-name="calend" unicode="&#113;" d="M192 512c-6 0-11-3-15-6-2-2-4-5-5-7-1-3-1-6-1-8l0-43-43 0c-21 0-27-23-27-23l-58-126c-12 0-23-5-31-13-1-2-3-4-5-6-1-3-3-5-4-7-1-3-2-6-2-8-1-3-1-6-1-9l0-64c0-1 0-3 0-4l0 0 0-39 21 0 0-42c0-3 1-6 2-8 1-3 3-5 5-7 4-4 9-7 15-7l64 0c12 0 21 10 21 22l0 43 85 0 0 63 43 0 0 22 107 0 0-22 21 0 0 22 23 0c5 12 16 21 30 21 14 0 26-9 30-21l24 0 0-22 21 0 0 43c0 12-5 22-12 30-8 8-19 13-31 13l-58 126c0 0-6 23-27 23l-43 0 0 43c0 6-2 11-6 15-4 4-9 6-15 6l-128 0z m-22-107l171 0c21 0 19 0 64-107l-299 0c40 107 43 107 64 107z m-96-150c18 0 32-14 32-32 0-17-14-32-32-32-17 0-32 15-32 32 0 18 15 32 32 32z m203-42l0-21-21 0c-12 0-21-10-21-21l0-150c0-11 9-21 21-21l235 0c11 0 21 10 21 21l0 150c0 11-10 21-21 21l-22 0 0 21-64 0 0-21-64 0 0 21z m22-21l21 0 0-43-21 0z m128 0l21 0 0-43-21 0z m-171-64l43 0 0-21-43 0z m64 0l43 0 0-21-43 0z m64 0l43 0 0-21-43 0z m64 0l43 0 0-21-43 0z m-192-43l43 0 0-21-43 0z m64 0l43 0 0-21-43 0z m64 0l43 0 0-21-43 0z m64 0l43 0 0-21-43 0z m-192-42l43 0 0-22-43 0z m64 0l43 0 0-22-43 0z m64 0l43 0 0-22-43 0z m64 0l43 0 0-22-43 0z"/>
<glyph glyph-name="nomusic" unicode="&#114;" d="M461 512c-4 0-8 0-9-2l0 1-272-78c-2-1-4-2-6-3l109-109 168 48 0-166c-22 9-41 12-60 12-1 0-2 0-2 0l86-87c10 10 16 21 16 28l0 326c0 9-3 15-9 21-6 6-13 8-21 9z m-363-67l-31-31 92-92 0-196c-18 8-38 12-60 12-9 0-19-3-29-4-11-2-22-5-33-10-11-4-19-10-27-18-7-8-10-17-10-28 0-10 3-19 10-27 8-8 16-14 27-19 11-4 22-7 33-9 10-3 20-4 29-4 10 0 20 0 31 4 10 2 21 5 32 9 11 5 19 11 26 19 7 8 11 17 11 27l0 204 102-102c-6-8-9-17-9-27 0-18 18-34 37-43 15-7 34-12 55-13l97-97 31 30z"/>
<glyph glyph-name="tiho" unicode="&#115;" d="M64 491l-31-31 48-48c-24-17-45-38-61-64-13-22-20-46-20-71 0-28 9-55 26-80 17-25 41-46 71-63-5-19-14-38-25-53-8-13-20-24-27-32-4-4-9-9-9-13 0-11 10-15 14-15 13 0 23 4 32 7 50 13 94 36 132 69 56-7 113 2 164 18l69-69 31 30z m192-31c-31 0-61-4-89-11l288-288c8 7 16 15 23 23 22 28 34 59 34 92 0 33-10 65-34 92-58 64-126 92-222 92z"/>
<glyph glyph-name="silent" unicode="&#116;" d="M444 500l-38-38c64-70 64-176 0-250l38-38c91 91 91 232 0 326z m-414-64l-30-30 97-97c10-29 32-51 61-60l52-53c-8 0-17 2-24 2-62 0-186-31-186-93l0-46 348 0 47-47 30 30-53 52-86 86-69 70-119 118-68 68z m156-6c-24 0-47-9-65-26l132-132c17 17 26 41 26 65 0 51-41 93-93 93z m181-8l-39-40c19-27 19-63 0-90l39-40c47 48 47 118 0 170z"/>
<glyph glyph-name="noshanson" unicode="&#117;" d="M255 491c-20-31-44-53-70-73l284-284c26 22 43 53 43 89 0 35-16 64-36 88-18 21-43 38-64 51-59 37-120 69-156 129z m-191-13l-31-30 79-79c-4-2-8-4-12-7-24-15-48-33-66-53-22-26-34-57-34-86 0-102 135-170 233-73-19-51-45-102-117-105l0-24 280 0 0 24c-72 3-98 54-117 105 31-31 66-45 99-47l70-70 31 31z"/>
<glyph glyph-name="mappoint" unicode="&#118;" d="M256 512c-100 0-181-75-181-175 0-144 152-240 181-240 29 0 181 97 181 240 0 100-81 175-181 175z m0-64c61 0 110-49 110-110 0-61-49-110-110-110-61 0-110 49-110 110 0 61 49 110 110 110z m-47-389l-11-6 46-26-46-26 11-6 47 25 47-25 11 6-46 26 46 26-11 6-47-26z"/>
<glyph glyph-name="clientpoint" unicode="&#119;" d="M256 512c-100 0-181-75-181-175 0-144 152-240 181-240 29 0 181 97 181 240 0 100-81 175-181 175z m0-77c22 0 39-17 39-39 0-22-17-39-39-39-22 0-39 17-39 39 0 22 17 39 39 39z m0-102c26 0 78-14 78-40-17-25-46-42-78-42-32 0-61 17-78 42 0 26 52 40 78 40z m-47-274l-11-6 46-26-46-26 11-6 47 25 47-25 11 6-46 26 46 26-11 6-47-26z"/>
<glyph glyph-name="locpoint" unicode="&#120;" d="M256 512c-123 0-223-92-223-215 0-179 187-297 223-297 36 0 223 119 223 297 0 123-100 215-223 215z m0-78c75 0 136-61 136-137 0-36-14-71-40-96-25-26-60-40-96-40-36 0-71 14-96 40-26 25-40 60-40 96 0 76 61 137 136 137z"/>
<glyph glyph-name="rublsign" unicode="&#122;" d="M128 512l0-260-101 0 0-40 101 0 0-68-101 0 0-32 101 0 0-112 47 0 0 112 211 0 0 32-211 0 0 68 156 0c48 0 83 14 112 42 28 27 42 60 42 105l0 5c0 45-14 79-42 107-29 27-65 41-112 41z m47-41l148 0c32 0 61-10 83-30 22-21 33-50 33-80 0-31-11-60-33-80-22-21-51-31-83-31l-148 0z"/>
<glyph glyph-name="cardpromo" unicode="&#65;" d="M0 511l0-341 114 0c19 0 37 5 52 12 0 0 0 0 3 0 9 5 18 11 25 19 20 20 30 47 30 79 0 33-10 59-31 79-2 2-5 4-7 6 0 0-3 3-3 3-3 3-4 3-6 4-3 3-6 4-10 6-3 3-6 3-10 4-7 2-14 4-21 5-5 0-11 0-16 3-3 0-6 0-9 0l-40 0 0 65 122 0 0 57-191 0z m321-24c-13 0-25-4-34-13l-87-87c4-3 7-5 11-9 3-3 3-3 5-5l86 85c5 6 12 8 19 8 6 0 13-2 18-8l87-86-287-286-58 58-30 0 130-130c18-19 49-19 68 0l249 249c19 18 19 49 0 67l-144 144c-9 9-21 13-33 13z m-252-155l42 0c0 0 0 0 3 0 5 0 9 0 13-3 0 0 3 0 3 0 5-3 10-6 14-10 8-10 11-22 11-37 0-16-3-29-11-39-8-10-19-14-32-14l-41 0 0 103z m402-6l12-11c11-10 11-27 0-37l-249-249c-11-10-27-10-38 0l-11 12z"/>
<glyph glyph-name="cardreaderh" unicode="&#67;" d="M0 0l213 0 0 77-64 0 0-34-64 0 0 426 64 0 0-34 64 0 0 77-213 0z m107 114c7-5 16-7 25-7l329 0c28 0 51 22 51 51l0 141-405 0z m0 227l405 0 0 13c0 29-23 51-51 51l-329 0c-9 0-18-2-25-7z m256-170l0 21 85 0 0-21z"/>
<glyph glyph-name="cardreaderv" unicode="&#68;" d="M0 512l0-213 77 0 0 64-34 0 0 64 426 0 0-64-34 0 0-64 77 0 0 213z m113-107c-4-7-6-16-6-25l0-329c0-28 22-51 51-51l141 0 0 405z m228 0l0-405 13 0c29 0 51 23 51 51l0 329c0 9-2 18-7 25z m-170-256l21 0 0-85-21 0z"/>
<glyph glyph-name="tfast" unicode="&#69;" d="M320 491l-128 0 0-43 128 0z m-85-278l42 0 0 128-42 0z m171 141l30 31c-9 11-19 21-30 30l-30-31c-33 27-75 43-120 43-106 0-192-86-192-192 0-106 86-192 192-192 106 0 192 86 192 192 0 45-16 86-42 119z m-150-269c-83 0-149 67-149 150 0 82 66 149 149 149 83 0 149-67 149-149 0-83-66-150-149-150z"/>
<glyph glyph-name="tcheap" unicode="&#70;" d="M85 427c-23 0-42-19-42-43l0-256c0-24 19-43 43-43l341 0c24 0 43 19 43 43l0 256c0 24-19 43-43 43z m0-43l342 0 0-256-342 0z m107-21l0-86-21 0 0-42 21 0 0-22-21 0 0-42 21 0 0-22 43 0 0 22 43 0 0 42-43 0 0 22 66 0c12 0 21 12 19 24l0 84c0 12-12 21-24 19l-104 0 0 1z m43-43l43 0 0-43-43 0z"/>
<glyph glyph-name="tcomfort" unicode="&#71;" d="M352 448c-37 0-73-17-96-45-23 28-59 45-96 45-66 0-117-52-117-117 0-81 72-147 182-247l31-27 31 28c110 99 182 165 182 246 0 65-51 117-117 117z m-94-332l-2-2-2 2c-102 92-169 153-169 215 0 42 32 74 75 74 33 0 54-28 76-50 12-12 31-11 40 0 20 24 43 50 76 50 43 0 75-32 75-74 0-62-67-123-169-215z"/>
<glyph glyph-name="turgent" unicode="&#72;" d="M53 113l406 0 0-43-406 0z m418 199c-5 17-22 28-39 23l-114-30-147 137-41-11 88-153-106-28-42 33-31-9 39-67 17-29 34 10 113 30 93 25 113 30c17 5 27 22 23 39z"/>
<glyph glyph-name="appmenu" unicode="&#121;" d="M85 416c-12 0-21-9-21-21l0-11c0-12 9-21 21-21l342 0c11 0 21 9 21 21l0 11c0 12-10 21-21 21z m0-133c-12 0-21-10-21-22l0-10c0-12 9-22 21-22l342 0c11 0 21 10 21 22l0 10c0 12-10 22-21 22z m0-134c-12 0-21-9-21-21l0-11c0-11 9-21 21-21l342 0c11 0 21 10 21 21l0 11c0 12-10 21-21 21z"/>
</font>
</defs>
</svg>
