<?xml version='1.0' encoding='UTF-8'?>
<svg xmlns:dc="http://purl.org/dc/elements/1.1/" xmlns:cc="http://creativecommons.org/ns#" xmlns:rdf="http://www.w3.org/1999/02/22-rdf-syntax-ns#" xmlns:svg="http://www.w3.org/2000/svg" xmlns="http://www.w3.org/2000/svg" version="1.1" id="svg2" viewBox="0 0 129.38 72.0044" height="20.3213mm" width="36.5139mm">
  <defs id="defs4"></defs>
  <metadata id="metadata7">
    <rdf:RDF>
      <cc:Work rdf:about="">
        <dc:format>image/svg+xml</dc:format>
        <dc:type rdf:resource="http://purl.org/dc/dcmitype/StillImage"></dc:type>
        <dc:title></dc:title>
      </cc:Work>
    </rdf:RDF>
  </metadata>
  <g id="layer1">
    <g id="g4226">
      <path style="color:#000000;solid-opacity:1;fill:#ffba00;stroke-width:1.355614px" d="m 105.734,-4.80119e-4 c -3.967,0 -7.16,3.359000119 -7.16,7.542000119 l 0,6.22598 c 0,4.175 3.193,7.541 7.16,7.541 l 0.303,0 c 3.912,0 7.066,-3.276 7.151,-7.378 l -4.356,0 c -0.351,2.274 -1.509,3.931 -2.896,3.931 l -0.202,0 c -1.667,0 -3.009,-2.393 -3.009,-5.372 l 0,-3.37298 c 0,-2.98 1.342,-5.372 3.009,-5.372 l 0.202,0 c 1.222,0 2.267,1.293 2.738,3.15 l 4.491,0 c -0.308,-3.871 -3.369,-6.895000119 -7.128,-6.895000119 z M 53.23,0.16352 l 0,3.521 4.655,0 0,17.78798 4.299,0 0,-17.78798 4.655,0 0,-3.521 z m 17.965,0 -5.64,21.30898 4.478,0 0.984,-4.503 5.671,0 0.986,4.503 4.475,0 -5.64,-21.30898 z m 12.585,0 0,21.30898 4.298,0 0,-6.539 1.093,-1.649 4.087,8.188 4.703,0 -6.163,-12.15598 6.061,-9.153 -5.107,0 -4.674,7.615 0,-7.615 z m 31.18,0 0,21.30898 5.006,0 5.117,-12.52698 0,12.52698 4.297,0 0,-21.30898 -5.006,0 -5.117,12.52698 0,-12.52698 z m -41.136,3.7 0.06,0 2.058,9.58398 -4.178,0 2.061,-9.58398 z" id="path14514"></path>
      <path style="fill:#c82b24;stroke-width:1px" d="M 26.511,-0.00448 C 14.627,-0.07448 0,7.24352 0,18.6965 c 0,1.946 5.695,0.925 5.695,-0.127 0,-9.41398 11.91,-16.01298 17.262,-16.01298 15.367,0 17.57,27.74398 -6.364,27.74398 -0.724,0 -1.814,-0.257 -3.043,-0.611 0.609,-0.154 1.196,-0.306 2.069,-0.543 l 1.136,-0.491 c 0.838,-0.32 1.332,-0.689 2.469,-1.15 l 0.276,-0.281 c 0.265,-0.263 1.147,-0.373 1.503,-0.491 0.494,-0.158 0.977,-0.322 1.459,-0.505 0.908,-0.344 1.803,-0.743 2.596,-1.325 0.655,-0.483 0.942,-1.188 1.137,-1.931 0.126,-0.495 0.403,-0.996 0.426,-1.514 0,-0.53 -0.346,-0.776 -0.725,-1.066 -0.574,-0.433 -0.229,-0.813 -0.264,-1.442 0,-0.493 -0.196,-0.946 -0.529,-1.302 -0.264,-0.284 -0.585,-0.436 -0.723,-0.797 -0.115,-0.295 -0.149,-0.627 -0.275,-0.924 -0.241,-0.602 -0.666,-1.098 -1.355,-1.139 -0.196,-0.01 -0.552,0.118 -0.655,-0.162 l 0,-0.572 c 0,-0.498 -0.275,-1.049 -0.769,-1.231 -0.505,-0.189 -0.85,0.05 -1.252,0.33 -0.701,0.511 -1.287,1.161 -1.93,1.75 -0.298,0.28 -0.7,0.703 -1.125,0.975 -0.506,0.32 -1.045,0.422 -1.539,-0.189 -0.425,-0.549 -0.437,-1.436 -0.666,-2.073 -0.437,-1.152 -1.264,-2.66 -2.699,-2.586 -0.563,0.03 -1.184,0.05 -0.805,0.713 0.241,0.439 0.621,0.773 0.908,1.184 0.391,0.555 0.805,1.117 0.977,1.781 0.219,0.819 0.182,1.716 0.228,2.557 0,0.939 0.426,1.79 0.426,2.72 0,0.971 -0.242,1.963 -0.633,2.844 -0.861,2.013 -3.594,2.785 -5.455,3.385 -0.758,0.205 -1.595,0.407 -2.468,0.601 -0.678,0.15 -0.746,0.498 -0.516,0.922 -0.115,0.08 -0.115,0.171 -0.115,0.295 0,1.134 0.814,2.04 0.814,3.994 0,0.832 1.815,1.256 4.307,1.473 -2.917,8.694 -5.799,17.528 -6.787,20.816 -0.988,-0.45 -1.918,-0.974 -2.584,-0.974 0,2.9 0,3.578 6.248,3.578 11.496,0 19.662,-10.677 19.662,-16.436 0,-3.052 -3.022,-7.302 -7.846,-7.302 12.691,0 23.006,-11.841 23.006,-21.6 0,-8.01098 -6.847,-11.52898 -14.971,-11.58598 z M 108.15,31.3275 c -1.7,0 -8.705,7.015 -8.705,16.826 0,2.563 3.513,6.702 4.949,6.702 2.228,0 4.674,-1.173 6.488,-2.643 1.218,1.646 3.193,2.557 5.582,2.557 3.996,0 1.965,-1.313 0.116,-1.313 -2.171,0 -1.955,-2.404 -1.702,-3.611 0,-2.401 5.766,-11.149 5.766,-13.016 0,0 -2.135,-2.719 -4.351,-2.719 -0.23,0 -0.69,0.61 -1.219,1.463 -1.826,-2.153 -5.27,-4.246 -6.867,-4.246 l -0.06,0 z m -38.783,0.06 -0.02,0 c 0,0 0.01,0 0.01,0 0,0 0,0 0.01,0 z m -0.01,0 c -1.766,0.07 -10.249,21.308 -17.885,21.308 -1.033,0 -1.642,-1.581 -1.642,-3.543 0,-1.819 0.529,-3.839 1.322,-5.763 1.102,0.768 2.79,1.673 3.502,1.673 3.158,0 5.881,-3.102 5.881,-6.865 0,-4.905 -4.468,-6.689 -6.707,-6.689 -1.355,0 -6.078,4.461 -7.95,11.232 -3.537,5.002 -7.303,9.955 -10.048,9.955 -1.033,0 -1.629,-1.581 -1.629,-3.543 0,-5.889 5.499,-13.875 7.681,-13.875 2.147,0 -2.135,-3.769 -4.363,-3.769 -1.711,0 -8.717,7.015 -8.717,16.826 0,2.564 4.846,6.593 6.041,6.486 2.503,0 6.524,-3.502 10.325,-7.724 0,0.41 -0.116,0.818 -0.116,1.238 0,2.564 4.847,6.593 6.053,6.486 8.992,0 17.548,-21.748 19.133,-21.748 2.228,0 2.068,2.071 2.068,2.071 0,1.527 -6.926,9.927 -6.926,12.755 0,4.324 2.871,6.87 6.868,6.87 4.008,0 5.639,-2.415 9.142,-2.415 l 0,0 c 0.126,0.04 0.254,0.07 0.403,0.07 1.412,0 2.996,2.45 4.191,2.344 0.115,0 0.219,-0.03 0.334,-0.06 2.205,-0.163 2.524,-2.652 4.144,-2.652 1.516,0 2.608,3.049 2.608,5.719 l 0,0.728 c -2.412,-0.168 -5.018,-0.289 -8.027,-0.289 -4.422,0 -9.43,1.958 -9.43,2.451 0,4.414 2.939,7.305 2.939,7.305 0,0 4.308,4.035 9.487,4.035 4.445,0 9.796,-4.102 9.853,-10.144 6.765,0.916 14.815,3.277 21.867,3.277 7.959,0 9.59,-4.746 9.59,-7.031 0,-2.182 -1.735,-4.092 -3.055,-4.092 0,2.725 -2.01,6.598 -12.691,6.598 -5.019,0 -9.576,-1.005 -16.019,-1.715 -1.056,-4.876 -4.434,-8.807 -5.674,-8.807 -1.229,0 -4.812,2.048 -5.961,1.682 -0.367,-0.646 -0.584,-1.648 -0.584,-2.789 0,-5.886 5.51,-13.875 7.681,-13.875 2.308,0 3.446,10.279 0.495,10.279 -1.379,0 -1.127,3.266 0.515,3.266 2.251,0 3.344,-2.178 3.344,-4.649 0,-13.409 -6.465,-12.502 -8.705,-12.502 -1.677,0 -8.487,6.646 -8.705,16.211 -2.573,2.177 -6.306,5.758 -7.627,5.758 -2.182,0 -1.951,-2.407 -1.699,-3.613 1.999,-2.961 6.523,-11.149 6.523,-13.016 0,-1.466 -5.322,-5.432 -7.83,-5.445 z m -52.799,2.365 c 2.538,0.177 5.366,2.185 5.389,5.242 0,5.761 -4.882,14.886 -15,15.842 2.813,-3.803 7.05,-13.099 9.611,-21.084 z m 94.875,1.344 c 1.32,0 2.285,0.683 2.986,1.488 -2.022,3.579 -4.824,9.955 -4.824,11.314 0,1.122 0.195,2.122 0.551,2.991 -1.424,1.089 -3.213,1.623 -4.775,1.623 -1.034,0 -1.631,-1.583 -1.631,-3.543 0,-5.886 5.511,-13.873 7.693,-13.873 z m -53.908,0.173 -0.01,0 c 0,5.479 -2.48,7.391 -5.42,7.391 -0.219,0 -0.414,-0.01 -0.609,-0.05 1.803,-3.972 4.617,-7.348 6.041,-7.348 z m 34.74,26.225 c -1.413,3.078 -4.638,6.027 -10.357,6.027 -0.827,0 -2.024,-0.114 -2.024,-0.816 0,-0.687 1.206,-4.943 12.381,-5.211 z m -57.719,0.826 c -0.361,0 -0.698,0.06 -1.005,0.172 -0.306,0.114 -0.561,0.277 -0.768,0.492 -0.216,0.226 -0.381,0.499 -0.494,0.817 -0.113,0.315 -0.168,0.673 -0.168,1.072 0,0.406 0.05,0.766 0.168,1.082 0.115,0.316 0.279,0.582 0.49,0.799 0.212,0.217 0.469,0.384 0.77,0.498 0.303,0.114 0.639,0.17 1.007,0.17 0.379,0 0.715,-0.06 1.008,-0.168 0.296,-0.112 0.552,-0.279 0.768,-0.5 0.209,-0.213 0.371,-0.477 0.486,-0.795 0.118,-0.32 0.176,-0.683 0.176,-1.086 0,-0.403 -0.06,-0.764 -0.172,-1.082 -0.113,-0.318 -0.276,-0.587 -0.49,-0.807 -0.209,-0.212 -0.465,-0.374 -0.766,-0.488 -0.298,-0.116 -0.634,-0.176 -1.01,-0.176 z m -34.47,0.102 0,4.898 1.859,0 c 0.364,0 0.666,-0.03 0.9,-0.09 0.238,-0.06 0.454,-0.163 0.651,-0.308 0.167,-0.121 0.3,-0.275 0.398,-0.461 0.1,-0.186 0.149,-0.401 0.149,-0.645 0,-0.339 -0.103,-0.62 -0.307,-0.841 -0.204,-0.224 -0.483,-0.37 -0.838,-0.438 l 0,-0.03 c 0.212,-0.1 0.379,-0.229 0.506,-0.391 0.127,-0.164 0.191,-0.363 0.191,-0.596 0,-0.206 -0.04,-0.382 -0.13,-0.529 -0.09,-0.149 -0.228,-0.271 -0.42,-0.365 -0.174,-0.08 -0.355,-0.138 -0.545,-0.164 -0.191,-0.03 -0.477,-0.04 -0.86,-0.04 l -1.554,0 z m 10.021,0 0,4.898 0.697,0 0,-2.398 2.62,0 0,2.398 0.697,0 0,-4.898 -0.697,0 0,1.922 -2.62,0 0,-1.922 -0.697,0 z m 4.742,0 1.954,3.629 -0.127,0.259 c -0.05,0.11 -0.115,0.193 -0.19,0.25 -0.07,0.06 -0.147,0.1 -0.223,0.125 -0.06,0.03 -0.142,0.04 -0.226,0.05 -0.09,0 -0.15,0.01 -0.197,0.01 -0.106,0 -0.199,0 -0.282,-0.01 -0.08,-0.01 -0.14,-0.02 -0.175,-0.02 l -0.05,0 0,0.609 c 0.04,0 0.122,0 0.256,0.02 0.134,0 0.247,0.01 0.341,0.01 0.106,0 0.216,-0.01 0.329,-0.03 0.115,-0.02 0.233,-0.06 0.355,-0.111 0.127,-0.06 0.245,-0.143 0.354,-0.25 0.11,-0.107 0.205,-0.243 0.285,-0.41 l 1.994,-4.123 -0.719,0 -1.375,2.888 -1.531,-2.888 -0.774,0 z m 4.727,0 0,0.584 0.211,0 c 0.141,0 0.259,0.01 0.355,0.04 0.1,0.03 0.181,0.07 0.245,0.127 0.06,0.06 0.119,0.142 0.162,0.238 0.04,0.09 0.09,0.208 0.132,0.342 0.08,0.23 0.175,0.43 0.297,0.601 0.122,0.171 0.288,0.321 0.494,0.448 l -2.089,2.519 0.81,0 1.846,-2.24 0.377,0 0,2.24 0.691,0 0,-2.24 0.369,0 1.848,2.24 0.852,0 -2.114,-2.558 c 0.146,-0.09 0.29,-0.203 0.436,-0.35 0.148,-0.149 0.272,-0.368 0.371,-0.66 0.04,-0.127 0.09,-0.241 0.131,-0.34 0.04,-0.101 0.1,-0.181 0.168,-0.24 0.07,-0.06 0.149,-0.103 0.236,-0.127 0.09,-0.03 0.212,-0.04 0.367,-0.04 l 0.211,0 0,-0.584 -0.25,0 c -0.387,0 -0.688,0.07 -0.902,0.211 -0.212,0.14 -0.388,0.4 -0.529,0.777 -0.02,0.06 -0.05,0.128 -0.08,0.223 -0.03,0.09 -0.07,0.186 -0.114,0.283 -0.108,0.246 -0.246,0.424 -0.418,0.533 -0.169,0.108 -0.362,0.167 -0.578,0.18 l 0,-2.207 -0.691,0 0,2.201 c -0.202,-0.02 -0.388,-0.08 -0.557,-0.193 -0.167,-0.112 -0.301,-0.284 -0.404,-0.514 -0.03,-0.08 -0.07,-0.167 -0.108,-0.264 -0.04,-0.1 -0.07,-0.176 -0.09,-0.242 -0.144,-0.379 -0.319,-0.639 -0.528,-0.777 -0.209,-0.141 -0.51,-0.211 -0.902,-0.211 l -0.25,0 z m 7.418,0 0,4.898 0.697,0 0,-2.398 2.617,0 0,2.398 0.7,0 0,-4.898 -0.7,0 0,1.922 -2.617,0 0,-1.922 -0.697,0 z m 11.107,0 0,4.898 3.455,0 0,-0.578 -2.757,0 0,-1.82 2.757,0 0,-0.578 -2.757,0 0,-1.342 2.757,0 0,-0.58 -3.455,0 z m 9.641,0 0,4.898 1.859,0 c 0.364,0 0.666,-0.03 0.901,-0.09 0.237,-0.06 0.453,-0.163 0.65,-0.308 0.167,-0.121 0.3,-0.275 0.399,-0.461 0.1,-0.186 0.148,-0.401 0.148,-0.645 0,-0.339 -0.102,-0.62 -0.307,-0.841 -0.204,-0.224 -0.483,-0.37 -0.838,-0.438 l 0,-0.03 c 0.212,-0.1 0.379,-0.229 0.506,-0.391 0.127,-0.164 0.192,-0.363 0.192,-0.596 0,-0.206 -0.04,-0.382 -0.131,-0.529 -0.09,-0.149 -0.227,-0.271 -0.42,-0.365 -0.174,-0.08 -0.355,-0.138 -0.545,-0.164 -0.19,-0.03 -0.478,-0.04 -0.861,-0.04 l -1.553,0 z m 4.947,0 0,4.898 0.698,0 0,-1.826 0.697,0 c 0.376,0 0.689,-0.04 0.935,-0.125 0.247,-0.09 0.46,-0.212 0.641,-0.381 0.146,-0.136 0.258,-0.296 0.338,-0.48 0.08,-0.187 0.123,-0.389 0.123,-0.606 0,-0.285 -0.06,-0.52 -0.166,-0.707 -0.108,-0.186 -0.261,-0.342 -0.461,-0.467 -0.169,-0.105 -0.364,-0.182 -0.582,-0.23 -0.219,-0.05 -0.484,-0.08 -0.799,-0.08 l -1.424,0 z m 4.356,0 0,4.898 3.457,0 0,-0.578 -2.76,0 0,-1.82 2.76,0 0,-0.578 -2.76,0 0,-1.342 2.76,0 0,-0.58 -3.457,0 z m 4.566,0 0,4.898 0.652,0 0,-4.22 1.448,2.873 0.416,0 1.459,-2.873 0,4.22 0.699,0 0,-4.898 -0.971,0 -1.351,2.728 -1.401,-2.728 -0.951,0 z m 8.049,0 c -0.27,0 -0.517,0.02 -0.74,0.07 -0.223,0.04 -0.417,0.121 -0.584,0.231 -0.184,0.12 -0.333,0.271 -0.446,0.453 -0.11,0.18 -0.166,0.396 -0.166,0.646 0,0.393 0.1,0.705 0.289,0.94 0.195,0.232 0.47,0.405 0.823,0.517 l -1.686,2.045 0.84,0 1.568,-1.947 1.131,0 0,1.947 0.698,0 0,-4.898 -1.727,0 z m -35.102,0.461 c 0.529,0 0.947,0.173 1.252,0.519 0.306,0.345 0.457,0.835 0.457,1.471 0,0.642 -0.154,1.134 -0.464,1.477 -0.308,0.339 -0.723,0.509 -1.245,0.509 -0.521,0 -0.936,-0.17 -1.246,-0.509 -0.31,-0.343 -0.467,-0.835 -0.467,-1.477 0,-0.636 0.153,-1.126 0.456,-1.471 0.305,-0.346 0.724,-0.519 1.257,-0.519 z m -33.775,0.09 0.832,0 c 0.233,0 0.427,0 0.584,0.02 0.157,0.01 0.292,0.05 0.402,0.107 0.09,0.05 0.163,0.118 0.205,0.2 0.04,0.08 0.06,0.18 0.06,0.298 0,0.143 -0.02,0.266 -0.07,0.371 -0.05,0.104 -0.122,0.189 -0.233,0.254 -0.11,0.07 -0.23,0.109 -0.359,0.131 -0.129,0.02 -0.303,0.03 -0.522,0.03 l -0.902,0 0,-1.415 z m 47.656,0 0.832,0 c 0.233,0 0.427,0 0.584,0.02 0.158,0.01 0.292,0.05 0.403,0.107 0.09,0.05 0.162,0.118 0.205,0.2 0.04,0.08 0.06,0.18 0.06,0.298 0,0.143 -0.02,0.266 -0.07,0.371 -0.04,0.104 -0.122,0.189 -0.233,0.254 -0.11,0.07 -0.23,0.109 -0.359,0.131 -0.129,0.02 -0.303,0.03 -0.521,0.03 l -0.903,0 0,-1.415 z m 4.948,0 0.691,0 c 0.221,0 0.402,0.01 0.545,0.05 0.145,0.03 0.276,0.08 0.388,0.145 0.13,0.08 0.226,0.181 0.29,0.306 0.06,0.125 0.1,0.273 0.1,0.442 0,0.145 -0.02,0.274 -0.07,0.39 -0.05,0.117 -0.122,0.227 -0.232,0.333 -0.111,0.103 -0.254,0.178 -0.43,0.226 -0.176,0.05 -0.406,0.07 -0.688,0.07 l -0.587,0 0,-1.957 z m 16.238,0 1.064,0 0,1.848 -1.037,0 c -0.202,0 -0.378,-0.02 -0.531,-0.05 -0.153,-0.03 -0.283,-0.1 -0.389,-0.193 -0.1,-0.09 -0.166,-0.195 -0.211,-0.311 -0.04,-0.116 -0.06,-0.262 -0.06,-0.437 0,-0.147 0.03,-0.282 0.09,-0.405 0.06,-0.122 0.145,-0.217 0.253,-0.285 0.101,-0.06 0.212,-0.108 0.334,-0.132 0.123,-0.03 0.285,-0.04 0.487,-0.04 z m -68.842,1.959 1.096,0 c 0.23,0 0.426,0.01 0.586,0.03 0.162,0.02 0.299,0.05 0.412,0.105 0.167,0.08 0.282,0.179 0.345,0.295 0.06,0.116 0.09,0.273 0.09,0.471 0,0.173 -0.03,0.314 -0.09,0.424 -0.06,0.109 -0.157,0.207 -0.289,0.293 -0.124,0.08 -0.283,0.135 -0.478,0.166 -0.195,0.03 -0.445,0.04 -0.75,0.04 l -0.924,0 0,-1.823 z m 47.656,0 1.096,0 c 0.23,0 0.426,0.01 0.586,0.03 0.162,0.02 0.299,0.05 0.412,0.105 0.167,0.08 0.282,0.179 0.346,0.295 0.06,0.116 0.09,0.273 0.09,0.471 0,0.173 -0.03,0.314 -0.09,0.424 -0.06,0.109 -0.158,0.207 -0.289,0.293 -0.125,0.08 -0.284,0.135 -0.479,0.166 -0.195,0.03 -0.445,0.04 -0.75,0.04 l -0.924,0 0,-1.823 z" id="text14518"></path>
    </g>
  </g>
</svg>